<svg width="128" height="128" xmlns="http://www.w3.org/2000/svg">
 <title>admin</title>

 <g>
  <title>Layer 1</title>
  <ellipse stroke="#000" ry="105.5" rx="99" id="svg_2" cy="178.5" cx="406" fill="#fff"/>
  <path stroke="#000" id="svg_15" d="m64.89263,60.23497c0,0 3.90493,-15.97316 0,-21.38402c-3.90953,-5.41085 -5.46874,-9.01505 -14.0651,-11.59533s-5.46414,-2.06604 -11.71478,-1.8021c-6.25064,0.25939 -11.46181,3.6042 -11.46181,5.4063c0,0 -3.90493,0.25939 -5.46414,1.80665c-1.56381,1.54726 -4.1671,8.75566 -4.1671,10.56231s1.30164,13.91622 2.60329,16.49195l-1.55001,0.51424c-1.30164,14.94014 5.20657,16.74679 5.20657,16.74679c2.34112,13.91622 4.68683,7.99113 4.68683,11.59533s-2.34572,2.32089 -2.34572,2.32089s-2.07895,5.6657 -7.28552,7.72719c-5.20657,2.05694 -34.10947,13.13349 -36.45979,15.45438c-2.35032,2.32544 -2.08355,13.14259 -2.08355,13.14259l123.94121,0c0,0 0.27137,-10.81715 -2.07895,-13.14259c-2.35492,-2.32544 -31.25782,-13.39744 -36.46439,-15.45438c-5.20657,-2.06149 -7.28552,-7.72719 -7.28552,-7.72719s-2.34572,1.28331 -2.34572,-2.32089s2.34572,2.32089 4.69143,-11.59533c0,0 6.50361,-1.80665 5.20657,-16.74679l-1.56381,0z" stroke-width="4" fill="#fff"/>
  <path id="svg_17" d="m263.33286,90.84062c-0.00339,0.00132 -0.00685,0.00224 -0.01042,0.00224l0,0c-0.00319,0 -0.00628,-0.00072 -0.00931,-0.0018l0,0l-0.02616,0.13933l-0.00643,-0.00756c-0.00755,-0.00879 -0.01488,-0.01981 -0.02193,-0.03304l0,0l-0.00611,-0.01146l0.00157,-0.17501c-0.00556,-0.01613 -0.01074,-0.03408 -0.01555,-0.05376l0,0l-0.04135,0.03682l-0.00378,-0.02299c-0.00443,-0.02699 -0.00821,-0.05527 -0.01155,-0.08387l0,0l-0.00291,-0.02498l0.02808,-0.12881c-0.00176,-0.02727 -0.00292,-0.05543 -0.00352,-0.08412l0,0l-0.03721,-0.08154l0.00068,-0.02762c0.0008,-0.03304 0.00234,-0.06466 0.00418,-0.09505l0,0l0.00165,-0.02696l0.0415,-0.02381c0.00296,-0.02589 0.00644,-0.05042 0.01037,-0.07348l0,0l-0.01584,-0.1616l0.00478,-0.0194c0.00562,-0.02268 0.01163,-0.04324 0.01791,-0.06204l0,0l0.00544,-0.01625l0.03583,0.09325c0.00604,-0.01153 0.01235,-0.02101 0.0189,-0.02828l0,0l0.01299,-0.16701l0.00669,-0.00211c0.00361,-0.0011 0.00748,-0.00239 0.01169,-0.00239l0,0c0.0042,0 0.00807,0.00129 0.01167,0.00239l0,0l0.00669,0.00211l0.01313,0.16875c0.00629,0.00727 0.01239,0.01657 0.01823,0.02784l0,0l0.03633,-0.09458l0.00546,0.01625c0.00628,0.01877 0.0123,0.0394 0.01791,0.06198l0,0l0.0048,0.0194l-0.01632,0.16638c0.00356,0.02142 0.00676,0.04409 0.0095,0.06793l0,0l0.0428,0.02456l0.00166,0.02696c0.00187,0.03036 0.0034,0.06198 0.00418,0.09508l0,0l0.00068,0.02762l-0.03851,0.08437c-0.00058,0.02617 -0.0016,0.05194 -0.00313,0.07704l0,0l0.02901,0.13284l-0.00292,0.02507c-0.00334,0.02869 -0.00709,0.05707 -0.01154,0.08396l0,0l-0.00378,0.02293l-0.04238,-0.03763c-0.00449,0.01861 -0.00935,0.03575 -0.01455,0.05121l0,0l0.00161,0.17845l-0.00613,0.0115c-0.00706,0.01316 -0.01438,0.02422 -0.02193,0.03301l0,0l-0.00646,0.00756l-0.02621,-0.13968l0,0l0,0zm0.03363,0.04469c0.00226,-0.00312 0.00448,-0.00649 0.00668,-0.01008l0,0l-0.00151,-0.16852l0.00477,-0.01269c0.00714,-0.01921 0.01365,-0.04227 0.01942,-0.06844l0,0l0.00385,-0.01745l0.0401,0.03559c0.0012,-0.00835 0.00237,-0.01688 0.0035,-0.0256l0,0l-0.02743,-0.12569l0.0017,-0.02246c0.00242,-0.03234 0.0038,-0.06702 0.0042,-0.1032l0,0l0.00025,-0.02356l0.03643,-0.07981c-0.00038,-0.00967 -0.00082,-0.01927 -0.00131,-0.02891l0,0l-0.04054,-0.02324l-0.00218,-0.02173c-0.00326,-0.0325 -0.00757,-0.06293 -0.01272,-0.09099l0,0l-0.0034,-0.01871l0.01542,-0.15719c-0.00179,-0.00649 -0.00362,-0.01279 -0.0055,-0.0189l0,0l-0.03442,0.08954l-0.00507,-0.01109c-0.00751,-0.01638 -0.01563,-0.02882 -0.02419,-0.03688l0,0l-0.00554,-0.00526l-0.01243,-0.15974c-0.00121,-0.00025 -0.00238,-0.00038 -0.00353,-0.00038l0,0c-0.00117,0 -0.00234,0.00013 -0.00356,0.00038l0,0l-0.01234,0.1587l-0.00562,0.00498c-0.00871,0.00775 -0.01702,0.02038 -0.02476,0.03697l0,0l-0.00506,0.0109l-0.03386,-0.08812c-0.00187,0.00611 -0.0037,0.01241 -0.00548,0.0189l0,0l0.01501,0.15306l-0.00353,0.01874c-0.0055,0.02926 -0.01007,0.06132 -0.0135,0.09574l0,0l-0.00217,0.02183l-0.03923,0.02249c-0.0005,0.00964 -0.00094,0.01924 -0.00131,0.02891l0,0l0.03517,0.07707l0.00022,0.02375c0.00037,0.03833 0.00191,0.07512 0.00457,0.10951l0,0l0.00174,0.02261l-0.02656,0.12179c0.00112,0.00875 0.00228,0.01729 0.0035,0.02564l0,0l0.03901,-0.0348l0.00388,0.01745c0.00598,0.02715 0.01282,0.05074 0.02035,0.07033l0,0l0.00486,0.01256l-0.00149,0.16594c0.0022,0.00359 0.00443,0.00696 0.00669,0.01008l0,0l0.02469,-0.13158l0.00564,0.00286c0.00426,0.00224 0.0084,0.00369 0.01252,0.00369l0,0c0.00443,0 0.00891,-0.00161 0.01348,-0.00428l0,0l0.00569,-0.00331l0.02488,0.13262l0,0l0,0zm0.01125,-0.34171l0.00544,0.03464l-0.03449,0.093l-0.01224,-0.07808l0,0c-0.00445,0.0045 -0.00913,0.00715 -0.01401,0.00715l0,0c-0.03371,0 -0.06102,-0.11322 -0.06102,-0.25277l0,0c0,-0.13968 0.02731,-0.25287 0.06102,-0.25287l0,0c0.03367,0 0.06099,0.11319 0.06099,0.25287l0,0c0,0.05735 -0.00465,0.11048 -0.01245,0.1529l0,0l0.00676,0.04315m-0.0232,0.01332l0.00108,-0.00283l-0.00983,-0.0627l0.0057,-0.02362c0.00745,-0.03096 0.01202,-0.07319 0.01202,-0.12021l0,0c-0.00004,-0.09401 -0.01841,-0.17013 -0.04107,-0.17032l0,0c-0.02271,0.00019 -0.04106,0.07622 -0.0411,0.17032l0,0c0.00004,0.09392 0.0184,0.17004 0.0411,0.17023l0,0c0.00507,0 0.00995,-0.00432 0.01467,-0.01181l0,0l0.00753,-0.01197l0.0099,0.06292l0,0z" stroke-width="2" stroke="#000" fill="#fff"/>
  <path stroke="#000" id="svg_18" d="m123.67054,99.51498l8.32316,-4.2276c-0.16362,-1.56637 -0.47983,-3.08585 -0.87542,-4.57957l-9.24584,-1.22957c-0.80026,-1.85138 -1.85703,-3.56848 -3.09924,-5.14469l3.52439,-8.32436c-1.15888,-1.08541 -2.41043,-2.07499 -3.72771,-2.98555l-7.85092,4.73335c-1.84105,-0.92979 -3.8246,-1.63598 -5.90686,-2.08953l-2.8372,-8.44127c-0.80466,-0.05835 -1.60908,-0.12001 -2.42968,-0.12001s-1.62275,0.06023 -2.42982,0.12001l-2.80909,8.3665c-2.13807,0.43902 -4.16543,1.15341 -6.0538,2.09468l-7.72866,-4.66372c-1.31561,0.91056 -2.5671,1.90014 -3.7259,2.98555l3.4274,8.09443c-1.33583,1.64419 -2.45423,3.45832 -3.29425,5.41353l-8.95396,1.18926c-0.39392,1.49162 -0.71179,3.00949 -0.87372,4.57939l8.0364,4.0834c0.09105,2.14952 0.46213,4.23275 1.11924,6.19451l-6.06223,6.4373c0.7052,1.40469 1.49032,2.76693 2.39858,4.04498l8.92526,-1.84013c1.46336,1.5291 3.13062,2.86885 4.9701,3.97677l-0.3383,8.76992c1.46583,0.6349 2.98884,1.16626 4.55836,1.59099l5.6465,-6.97034c1.00186,0.12283 2.01639,0.20557 3.05116,0.20557c1.12099,0 2.21725,-0.09726 3.29587,-0.23958l5.67591,7.009c1.57198,-0.42424 3.09268,-0.95557 4.55835,-1.59051l-0.34483,-8.92742c1.75327,-1.09008 3.34308,-2.3942 4.74468,-3.8666l9.15738,1.88703c0.90826,-1.27785 1.6935,-2.63865 2.39844,-4.04451l-6.25858,-6.64806c0.60121,-1.85817 0.93705,-3.81974 1.03482,-5.84313l0,0zm-13.83371,10.15507l-3.94616,2.46712l-2.42715,-3.58133c-1.26264,0.46642 -2.62201,0.75002 -4.05502,0.75002c-6.25855,0 -11.33052,-4.87285 -11.33052,-10.8824c0,-6.00979 5.07197,-10.88076 11.33052,-10.88076c6.25692,0 11.33074,4.87097 11.33074,10.88076c0,3.00315 -1.26679,5.71797 -3.31445,7.68771l2.41203,3.55888z" stroke-width="2" fill="#fff"/>
 </g>
</svg>
