<svg width="128" height="128" xmlns="http://www.w3.org/2000/svg">
 <title>patient</title>
 <g id="Layer_1">
  <title>Layer 1</title>
  <path stroke="#000" id="svg_1" d="m86.1431,44.23553c0,0 3.92143,-20.00322 0,-26.77924c-3.92605,-6.77602 -5.49185,-11.28957 -14.12454,-14.52086s-5.48723,-2.58731 -11.76429,-2.25677c-6.27706,0.32484 -11.51025,4.51355 -11.51025,6.77032c0,0 -3.92143,0.32484 -5.48723,2.26247c-1.57042,1.93763 -4.18471,10.96473 -4.18471,13.2272s1.30714,17.42731 2.61429,20.6529l-1.55656,0.64398c-1.30714,18.70957 5.22857,20.97204 5.22857,20.97204c2.35101,17.42731 4.70664,10.00731 4.70664,14.52086s-2.35563,2.90645 -2.35563,2.90645s-2.08773,7.09516 -7.31631,9.67677c-5.22857,2.57591 -34.25361,16.44709 -36.61386,19.35355c-2.36025,2.91215 -2.09235,16.45849 -2.09235,16.45849l124.46496,0c0,0 0.27251,-13.54634 -2.08773,-16.45849c-2.36487,-2.91215 -31.38991,-16.77763 -36.61848,-19.35355c-5.22857,-2.58161 -7.31631,-9.67677 -7.31631,-9.67677s-2.35563,1.6071 -2.35563,-2.90645s2.35563,2.90645 4.71126,-14.52086c0,0 6.5311,-2.26247 5.22857,-20.97204l-1.57042,0z" stroke-width="2" fill="#fff"/>
  <path stroke="#000" id="svg_2" d="m54.27788,104.54482l24.76852,0l0,21.44769l25.4078,0l0,-21.44769l24.76852,0l0,-22.00126l-24.76852,0l0,-21.44769l-25.4078,0l0,21.44769l-24.76852,0l0,22.00126z" stroke-width="2" fill="#fff"/>
 </g>
</svg>