<svg width="128" height="128" xmlns="http://www.w3.org/2000/svg">
 <title>registration</title>

 <g id="Layer_1">
  <title>Layer 1</title>
  <path fill="#5B9BA2" stroke="#000" stroke-width="2" d="m-106.57294,-21.56178l-0.15779,-0.09917c-0.03981,-0.025 -0.09227,-0.01297 -0.11735,0.02685l-0.06219,0.09899l0.30185,0.18959l0.06224,-0.09894c0.02499,-0.03987 0.01306,-0.09237 -0.02676,-0.11731l0,0l0,-0.00001zm-0.87448,0.88188l0.30187,0.18958l0.492,-0.78322l-0.30201,-0.18963l-0.49185,0.78327l0,0l-0.00001,0zm-0.04611,0.24087l-0.00667,0.17807l0.15754,-0.08333l0.1464,-0.0773l-0.29122,-0.18301l-0.00606,0.16557l0,0l0,0l0.00001,0z" id="svg_23"/>
  <path fill="#5B9BA2" stroke="#000" stroke-width="2" d="m-173.78679,-35.15204l-0.15779,-0.0207c-0.03981,-0.00522 -0.09227,-0.00271 -0.11735,0.00561l-0.06219,0.02066l0.30185,0.03958l0.06224,-0.02066c0.02499,-0.00832 0.01306,-0.01928 -0.02676,-0.02449l0,0zm-0.87448,0.1841l0.30187,0.03958l0.492,-0.1635l-0.30201,-0.03959l-0.49185,0.16351l0,0l-0.00001,0zm-0.04611,0.05028l-0.00667,0.03717l0.15754,-0.0174l0.1464,-0.01614l-0.29122,-0.03821l-0.00606,0.03456l0,0l0,0l0.00001,0.00002z" id="svg_24"/>
  <path id="svg_1" d="m0.80099,42.04332l41.37735,0l0,-42.03833l42.4453,0l0,42.03833l41.37735,0l0,43.12334l-41.37735,0l0,42.03832l-42.4453,0l0,-42.03832l-41.37735,0l0,-43.12334z" stroke="#000" fill="#fff"/>
 </g>
</svg>